<?xml version="1.0" encoding="utf-8"?>
<!-- Generator: Adobe Illustrator 25.4.1, SVG Export Plug-In . SVG Version: 6.00 Build 0)  -->
<svg version="1.1" id="Layer_1" xmlns="http://www.w3.org/2000/svg" xmlns:xlink="http://www.w3.org/1999/xlink" x="0px" y="0px"
	 viewBox="0 0 200 200" style="enable-background:new 0 0 200 200;" xml:space="preserve">
<style type="text/css">
	.st0{fill:#97C3F0;}
	.st1{fill:#E8E8FE;}
	.st2{fill:#FCD6AC;}
	.st3{fill:#F8AB00;}
	.st4{fill:#E5B07C;}
	.st5{fill:#2A91F9;}
	.st6{fill:#0E81F4;}
	.st7{fill:#E5B07B;}
	.st8{fill:#5D689D;}
	.st9{fill:#F59A00;}
	.st10{fill:#F79A00;}
	.st11{fill:#F59900;}
	.st12{fill:#A2A2CB;}
	.st13{fill:#C5C5D8;}
	.st14{fill:#030303;}
	.st15{fill:#030304;}
	.st16{fill:#020203;}
	.st17{fill:#020202;}
	.st18{fill:#010102;}
	.st19{fill:#F2A700;}
</style>
<rect class="st0" width="200" height="200"/>
<g id="gCInMW.tif">
	<g>
		<path d="M110.6,31.8c1.4,0.8,2,2.1,1.9,3.7c-0.1,0.9,0,1.7,0,2.6c-0.1,1.7-1.2,2.6-2.8,2.7c-1,0-2.1,0-3.1,0
			c-0.6,0-0.8,0.2-0.8,0.8v0.1c-0.1,3.4-0.1,3.5,3.2,3.4c1.4,0,2.1,0.5,2.2,1.8c0,3.2,1.6,5,4.6,5.8c1.4,0.4,2.8,1.5,4.1,1.5
			c1.4,0,2.5-1.4,3.8-2.3c1-0.7,1.8-0.6,2.6,0.3c3.5,3.6,7,7.1,10.6,10.6c0.8,0.8,1,1.6,0.2,2.5c-0.1,0.1-0.1,0.2-0.1,0.2
			c-2.4,2.3-2,4.6-0.8,7.5s2.6,5,6,4.9c1.3,0,1.7,0.8,1.7,2.1c-0.1,4.9,0,9.9,0,14.8c0,1.3-0.5,2-1.8,2c-3.3,0-4.7,1.9-6,4.8
			c-1.3,3-1.4,5.3,0.8,7.8c0.7,0.7,1.1,1.1,2.1,1c4-0.2,7.3,2.1,8.1,5.6c0.5,2.1-0.2,3.9-1.5,5.6c-1,1.2-2.2,2.2-3.6,2.8
			c-13.7,6.4-27.4,12.8-41.1,19.3c-5,2.3-10.2,3.3-15.7,3c-4.2-0.2-8.5-0.4-12.7,0.5c-5.3,1.1-9.4,4.2-13.3,7.8
			c-0.3,0.3-0.2,0.6-0.1,1c0.7,2.4,0,4.2-1.8,5.8c-1.8,1.5-3.5,3.1-5.2,4.6c-2.6,2.3-5.5,2.1-7.8-0.5c-6.2-7.1-12.5-14.3-18.7-21.4
			c-0.7-0.8-1.2-1.8-1.8-2.7c0-0.8,0-1.6,0-2.4c0.9-2.3,2.9-3.6,4.7-5.1c0.9-0.8,1.9-1.7,2.9-2.5c1.8-1.5,3.7-1.9,5.8-0.8
			c0.7,0.3,1.1,0.1,1.6-0.2c6.5-3.8,12.6-8.2,18.2-13.2c2.5-2.2,5.1-4.3,8.2-5.7c0.2-0.1,0.5-0.3,0.5-0.4c-0.1-2.1,1.7-3.3,2.6-4.9
			c0.3-0.5,0.3-0.9,0.1-1.4c-0.9-2.2-1.8-4.3-2.7-6.5c-0.2-0.6-0.5-0.9-1.1-0.9c-1.2-0.2-2.4-0.5-3.6-0.7c-1-0.2-1.5-0.7-1.5-1.7
			c0-5.2,0-10.3,0-15.5c0-0.9,0.4-1.5,1.3-1.6c0.3,0,0.5-0.2,0.8-0.2c3,0.1,4.3-1.7,5.4-4.3c1.4-3.2,1.8-5.7-0.8-8.4
			c-0.7-0.7-0.5-1.5,0.2-2.3c3.6-3.6,7.2-7.2,10.8-10.8c0.8-0.8,1.5-0.9,2.4-0.2c0,0,0.1,0,0.1,0.1c1.3,0.8,2.4,2.2,3.8,2.3
			c1.4,0,2.7-1.2,4.1-1.5c3.1-0.7,4.6-2.6,4.6-5.8c0-1.3,0.8-1.8,2.2-1.8c3.3,0,3.3,0,3.3-3.3c0-0.9-0.2-1.1-1.1-1s-1.9,0-2.9,0
			c-1.7-0.1-2.7-1-2.8-2.7c-0.1-1.2,0-2.4,0-3.5c0-1.3,0.9-2.1,1.9-2.8C98.7,31.8,104.6,31.8,110.6,31.8z"/>
		<path class="st1" d="M100.6,113.2c-1.8-0.6-3.6-1.2-5.6-1c-3.6,0.4-6.5-1.2-9.2-3.3c-8.8-6.6-12.7-17.6-9.9-28.1
			C78.6,70.2,87.5,62.3,98.4,61c16.2-1.9,28.5,10.3,29.8,24.2c1.4,14.6-10.5,28.4-25.1,28.8c-0.6,0-1.2,0.2-1.7-0.4
			c-0.1-0.1-0.1-0.2,0-0.4c1.1-0.6,1.4-1.6,1.2-2.8c-0.1-0.7-0.2-1.5-1.1-1.5c-0.8,0-0.9,0.7-1,1.4c0,0.8,0,1.5,0.1,2.3
			C100.7,113,100.7,113.1,100.6,113.2z"/>
		<path class="st2" d="M53.2,148.6c-4.5-5.1-9-10.2-13.5-15.3c4.7-2.9,9.2-5.8,13.5-9.1c3.2-2.6,6.2-5.4,9.6-7.8
			c3.7-2.7,7.7-3.7,12.3-3c6.7,1.1,13.4,1.3,20.2,1.5c1.6,0,3.2,0.2,4.5,1.2c1.4,2.3,0.8,5-1.5,6.4c-1.6,1-3.3,1.5-5.1,1.8
			c-4.6,0.7-9.2,0.8-13.8,0.4c-1.5-0.1-3,0-4.5-0.1c-1-0.1-1.8,0.4-2,1.4c-0.3,1,0.2,1.7,1.1,2.1c0.3,0.1,0.6,0.3,0.8,0.5
			c0.2,0.7,0.6,1.1,1.3,1.2c7.1,0.4,14.1,1.1,21.1-0.6c2.8-0.7,5.3-1.8,7-4.3c0.3-0.4,0.7-0.5,1.2-0.6c10.5-2.4,20.7-5.8,30.6-10
			c2.2-0.9,4.3-1.4,6.5-0.2c0.5,0.3,0.9,0.6,1.2,1.1c0.4,0.8,0.1,1.5-0.5,2.1c-0.9,1-1.9,1.8-3.2,2.3c-12.3,5.6-24.6,11.4-36.9,17
			c-3.2,1.5-6.3,3.1-9.7,3.8c-2.5,0.5-4.9,0.6-7.4,0.4c-6.4-0.4-12.8-0.9-19.2,0.6c-4.5,1.1-8.3,3.4-11.8,6.5
			C54.4,148.2,54.1,149,53.2,148.6z"/>
		<path class="st3" d="M67.7,96.3c-0.4-1.1-1.5-1.1-2.4-1.3c-0.6-0.1-1.1-0.2-1.7-0.4c-0.5-0.5-0.4-1.1-0.4-1.7c0-3.7,0-7.3,0-11
			c0-0.6,0-1.2,0.4-1.7c0.8-0.2,1.6-0.4,2.5-0.5c0.8-0.1,1.3-0.5,1.7-1.1c1.1-0.6,1.6-1.5,2-2.6c0.8-2,1.5-4,2.4-5.9
			c0.4-0.9,0.4-1.6-0.3-2.4c-0.6-0.8-1.2-1.6-1.7-2.4c-0.5-0.7-0.5-1.3,0.1-1.9c2.6-2.6,5.2-5.2,7.8-7.8c0.3-0.3,0.7-0.7,1.3-0.4
			c0.1,0.1,0.3,0.1,0.4,0.2c2.2,2.2,4.5,2,7.1,0.6c1.8-1,3.7-1.6,5.6-2.4c1-0.4,1.5-1,1.6-2c0-0.3,0.1-0.6,0.2-0.9
			c0.6-2.8,0.6-2.8,3.5-2.8c3.2,0,6.4,0,9.7,0c0.9,0,1.4,0.1,1.4,1.1c0,3.3,1.8,4.9,4.8,5.7c1.8,0.5,3.6,1.3,5.3,2.2
			c1.1,0.5,2,0.4,3-0.3c0.6-0.5,1.4-0.9,2-1.4s1.1-0.5,1.7,0.1c2.7,2.8,5.5,5.6,8.3,8.3c0.6,0.6,0.8,1.1,0.2,1.7
			c-2.2,2.3-2.3,4.7-0.7,7.4c1,1.7,1.6,3.7,2.4,5.6c0.3,0.8,0.8,1.4,1.8,1.4c0.2,0,0.4,0.1,0.7,0.1c3.2,0.7,3.2,0.7,3.2,4
			c0,3.1,0,6.2,0,9.3c0,0.9-0.2,1.4-1.1,1.4c-3.3,0-4.9,1.7-5.7,4.7c-0.5,1.8-1.4,3.5-2.2,5.3c-0.5,1.1-0.5,2.1,0.3,3
			c0.2,0.3,0.4,0.6,0.6,0.9c0.4,0.7,1.4,1.4,1.1,2.1c-0.4,1-1.3,1.9-2.4,2.3c-8.4,3.3-16.9,6.2-25.7,8.3c-0.7,0.2-1,0.1-0.9-0.7
			c0.1-1.3-0.3-2.5-0.9-3.8c9-1.1,16.1-5.2,21.3-12.5c3.8-5.4,5.6-11.5,5.3-18.1c-0.6-13.2-10.1-24.5-22.8-27.4
			c-13-2.9-26.4,3.3-32.5,15.1s-3.9,28,9.2,37.7c-4.9-0.5-9.5-0.9-14.1-1.4c-0.5-0.5-0.6-0.5-0.2-1c0.5-0.8,1.1-1.5,1.6-2.3
			c0.4-0.5,0.4-1,0.2-1.6c-1-2.4-2-4.7-2.9-7.1C69,97.2,68.3,96.9,67.7,96.3z"/>
		<path class="st4" d="M53.2,148.6c1.6-0.9,2.8-2.4,4.3-3.4c4.4-3.1,9.2-4.7,14.5-5.1c1.9-0.1,3.9-0.4,5.8-0.2c3,0.3,6,0.2,9.1,0.4
			c4.1,0.3,8.1-0.6,11.8-2.3c10.9-5,21.8-10.1,32.8-15.1c3-1.4,6-2.6,8.9-4.1c1.6-0.8,3.1-1.7,3.2-3.8c1.3,1.6,1.4,3,0.3,4.6
			c-0.8,1.3-2,2-3.4,2.7c-13.8,6.5-27.7,12.9-41.5,19.4c-4,1.8-8.1,2.6-12.5,2.4c-4.6-0.2-9.1-0.4-13.7,0.3
			c-5.5,0.9-10,3.8-14.1,7.5c-1.5,1.3-1.5,1.4-2.8-0.2C55,150.7,54.1,149.6,53.2,148.6z"/>
		<path class="st5" d="M42.5,159.5c-5.1-5.8-10.2-11.6-15.2-17.4c-1.1-1.2-0.9-2.4,0.2-3.5c1.9-1.7,3.8-3.4,5.7-5
			c1.1-1,2.4-0.9,3.4,0.1c4.9,5.6,9.8,11.3,14.7,16.9c0.2,0.6-0.3,0.9-0.6,1.2c-2.3,2.3-4.6,4.7-7,7
			C43.4,159.3,43.1,159.8,42.5,159.5z"/>
		<path class="st6" d="M42.5,159.5c3.1-2.8,6-5.8,8.8-8.8c1.6,1.8,3.2,3.5,4.8,5.4c1,1.2,0.9,2.3-0.3,3.4c-1.9,1.7-3.8,3.4-5.8,5.1
			c-1.2,1-2.4,0.9-3.4-0.2C45.2,162.8,43.9,161.2,42.5,159.5z"/>
		<path class="st7" d="M74.7,128.5c-1.7-0.2-2.5-1.1-2.4-2.5c0.2-1.4,1.4-2.1,3-2c4.9,0.2,9.7,0.7,14.6,0.2c1.9-0.2,3.8-0.4,5.6-0.9
			c4.3-1.4,5.2-2.8,4.3-7.2c3.7,2.1,3.9,6.8,0.2,9c-2.3,1.4-5,1.8-7.6,2.1c-5.2,0.6-10.4,0.2-15.6-0.1
			C75.6,126.9,74.8,127.2,74.7,128.5z"/>
		<path class="st8" d="M101.7,38.1c-2.3,0-4.6,0-6.9,0c-0.9,0-1.2-0.3-1.2-1.2c0-2.4,0-2.4,2.4-2.4c4.2,0,8.4,0,12.6,0
			c1,0,1.3,0.2,1.3,1.3c-0.1,2.3,0,2.3-2.3,2.3C105.6,38.1,103.6,38.1,101.7,38.1z"/>
		<path class="st9" d="M79.4,55.2c-0.5,0-0.8,0.4-1.1,0.7c-2.6,2.6-5.1,5.2-7.7,7.7c-0.6,0.6-0.6,1-0.1,1.6c0.4,0.5,0.7,1.2,1.2,1.7
			c1.6,1.4,1.3,2.9,0.4,4.6s-1.5,3.6-2.2,5.4c-0.4,1-0.9,1.9-2.1,1.9c1.1-2.8,2.2-5.5,3.4-8.3c0.5-1.1,0.5-2-0.3-3
			c-0.7-0.9-1.8-2-1.7-2.9c0.1-0.9,1.4-1.7,2.3-2.6c2.2-2.2,4.4-4.4,6.5-6.6C78.4,54.7,78.8,54.5,79.4,55.2z"/>
		<path class="st10" d="M63.6,80.3c0,4.8,0,9.5,0,14.3c-1.1,0-1.5-0.4-1.5-1.6c0.1-3.7,0.1-7.4,0-11.1
			C62.1,80.8,62.4,80.2,63.6,80.3z"/>
		<path class="st11" d="M67.7,96.3c1.2,0.1,1.7,0.9,2.1,2c0.9,2.3,1.9,4.7,2.9,7c0.3,0.6,0.3,1.1-0.1,1.6c-0.7,0.9-1.2,1.8-1.9,2.6
			c-0.2,0.3-0.4,0.5,0,0.8c-0.5,0.2-1,0.2-1.7,0.2c0.5-1.2,1.3-2.1,1.9-3.1c0.6-0.8,0.7-1.6,0.3-2.5C70,102,68.9,99.2,67.7,96.3z"/>
		<path class="st12" d="M103,42.9c0,0.2,0,0.3,0,0.4c0,2.1,0,2.1-2,1.9c-0.6,0-0.7-0.3-0.7-0.8c0-0.7,0.1-1.4,0-2
			c-0.2-1.2,0.3-1.5,1.5-1.6C103.9,40.7,102.7,42.2,103,42.9z"/>
		<path class="st13" d="M101.4,113.5c0,0.1,0,0.1,0,0.2c-0.3-0.2-0.6-0.3-0.8-0.5c0-0.1,0-0.2,0-0.2
			C101,112.8,101.4,112.9,101.4,113.5z"/>
		<path d="M100.3,78c0-1.6,0-3.2,0-4.8c0-0.9,0.3-1.7,1.4-1.6c1,0,1.4,0.7,1.4,1.7c0,3.1,0,6.2,0,9.2c0,0.7,0.1,1.1,0.8,1.5
			c1.7,1,2.3,2.8,1.8,4.6c-0.5,1.8-2.1,3-3.9,3s-3.4-1.2-3.9-3c-0.5-1.7,0.2-3.6,1.8-4.6c0.7-0.4,0.8-0.8,0.8-1.5
			C100.3,81,100.3,79.5,100.3,78z"/>
		<path class="st14" d="M90.3,69.3c-1.1,0-2.7-2.8-2.2-3.8c0.4-0.8,1.5-1,2.1-0.4c0.7,0.7,1.2,1.6,1.5,2.6
			C91.9,68.5,91.2,69.4,90.3,69.3z"/>
		<path class="st15" d="M115.3,66.4c-0.4,0.9-0.8,1.9-1.7,2.7c-0.4,0.4-0.9,0.3-1.4,0s-0.8-0.8-0.6-1.4c0.3-0.9,0.8-1.8,1.5-2.6
			c0.3-0.4,0.9-0.5,1.4-0.2C115,65.2,115.3,65.6,115.3,66.4z"/>
		<path class="st14" d="M121.4,77.5c-0.7,0-1.2-0.2-1.4-0.7c-0.3-0.5-0.3-1.1,0.2-1.5c0.7-0.7,1.6-1.2,2.6-1.5
			c0.6-0.2,1.1,0.1,1.4,0.6s0.4,1,0,1.4C123.3,76.7,122.2,77.2,121.4,77.5z"/>
		<path class="st14" d="M112.8,105.6c0.5,0,0.9,0.2,1.1,0.6c0.4,0.7,0.8,1.3,1.1,2c0.3,0.7,0.1,1.3-0.5,1.7
			c-0.6,0.4-1.3,0.4-1.7-0.2c-0.5-0.7-1-1.5-1.3-2.3C111.3,106.5,112,105.6,112.8,105.6z"/>
		<path class="st16" d="M79,75.4c0-1,0.4-1.4,1.1-1.6s3.1,1.2,3.3,1.9c0.2,0.7,0.1,1.3-0.6,1.7c-0.7,0.4-1.3,0.1-1.9-0.3
			C80.2,76.6,79.1,76.4,79,75.4z"/>
		<path class="st17" d="M103,63.9c0,0.3,0,0.5,0,0.8c0,0.9-0.5,1.5-1.3,1.5c-0.9,0-1.4-0.6-1.4-1.5c0-0.5,0-1.1,0-1.6
			c0-1,0.4-1.6,1.4-1.6c0.9,0,1.3,0.7,1.3,1.6C103,63.4,103,63.7,103,63.9z"/>
		<path class="st17" d="M90.5,105.6c0.6,0.1,1.1,0.4,1.2,1.1s-1.2,3-1.9,3.2c-0.7,0.2-1.3,0-1.6-0.6
			C87.6,108.4,89.3,105.6,90.5,105.6z"/>
		<path class="st16" d="M101.4,113.5c-0.3-0.2-0.5-0.4-0.8-0.6c-0.5-1-0.3-2.1-0.2-3.2c0-0.6,0.5-1,1-1.1s1,0.1,1.3,0.5
			C103.7,110.3,102.9,113,101.4,113.5z"/>
		<path class="st18" d="M81.9,97.4c0.8,0,1.2,0.2,1.5,0.8c0.2,0.6,0.1,1.2-0.4,1.6c-0.7,0.5-1.4,0.9-2.1,1.2
			c-0.7,0.3-1.4,0.1-1.7-0.6c-0.3-0.6-0.2-1.3,0.4-1.7C80.4,98.2,81.1,97.6,81.9,97.4z"/>
		<path class="st17" d="M121.2,97.4c1.4,0.2,3.2,1.7,3,2.6c-0.2,0.8-0.7,1.2-1.6,1.1c-1.3-0.2-3-1.6-2.8-2.5
			C119.9,97.7,120.5,97.3,121.2,97.4z"/>
		<path class="st14" d="M77.9,88.8c-0.7-0.1-2.1,0.3-2.1-1.3c0-1.6,1.4-1.3,2.4-1.4c0.3,0,0.6,0,0.9,0c0.8,0.1,1.3,0.5,1.3,1.4
			c0,0.8-0.5,1.2-1.3,1.3C78.8,88.8,78.5,88.8,77.9,88.8z"/>
		<path class="st14" d="M125.1,88.8c-0.4,0-0.7,0-1.1,0c-0.7-0.1-1.1-0.5-1.2-1.2c0-0.7,0.3-1.2,1-1.4c0.9-0.2,1.8-0.2,2.7,0
			c0.7,0.2,1.1,0.7,1,1.4c-0.1,0.7-0.5,1.1-1.2,1.2C125.9,88.8,125.5,88.8,125.1,88.8z"/>
		<path class="st19" d="M101.6,86.1c0.8,0.1,1.4,0.5,1.4,1.4c0,0.8-0.5,1.3-1.3,1.3c-0.9,0-1.4-0.4-1.4-1.3
			C100.3,86.6,100.8,86.2,101.6,86.1z"/>
	</g>
</g>
</svg>
