<?xml version="1.0" encoding="utf-8"?>
<!-- Generator: Adobe Illustrator 25.4.1, SVG Export Plug-In . SVG Version: 6.00 Build 0)  -->
<svg version="1.1" xmlns="http://www.w3.org/2000/svg" xmlns:xlink="http://www.w3.org/1999/xlink" x="0px" y="0px"
	 viewBox="0 0 586 358" style="enable-background:new 0 0 586 358;" xml:space="preserve">
<style type="text/css">
	.st0{fill:#FFFFFF;}
	.st1{opacity:0.36;}
	.st2{fill:#599AF2;}
	.st3{opacity:0.18;}
	.st4{fill:none;stroke:#4C65BA;stroke-miterlimit:10;}
	.st5{fill:#EF929C;}
	.st6{opacity:0.54;fill:#EF929C;}
	.st7{opacity:0.98;}
	.st8{opacity:0.5;fill:#EF929C;}
	.st9{opacity:0.54;}
	.st10{opacity:0.43;fill:#EF929C;}
	.st11{fill:none;stroke:#FFFFFF;stroke-linecap:round;stroke-miterlimit:10;}
	.st12{opacity:0.58;fill:#FFFFFF;}
	.st13{fill:#3E479B;}
	.st14{opacity:0.8;fill:#599AF2;}
	.st15{fill:#4C65BA;}
	.st16{opacity:0.55;fill:#FFFFFF;}
	.st17{fill:#373449;}
	.st18{fill:none;stroke:#373449;stroke-width:2;stroke-linecap:round;stroke-miterlimit:10;}
	.st19{fill:none;stroke:#FFFFFF;stroke-width:2;stroke-linecap:round;stroke-miterlimit:10;}
	.st20{opacity:0.66;fill:#599AF2;}
	.st21{opacity:0.58;fill:#EF929C;}
	.st22{opacity:0.68;}
	.st23{opacity:0.89;}
	.st24{fill:none;stroke:#4C65BA;stroke-width:2;stroke-linecap:round;stroke-miterlimit:10;}
	.st25{opacity:0.77;}
	.st26{opacity:0.39;fill:#599AF2;}
	.st27{opacity:0.39;}
	.st28{opacity:0.81;fill:#ECF1F7;}
	.st29{fill:#F9DCD2;}
	.st30{fill:#FFA06E;}
	.st31{opacity:0.31;fill:none;stroke:#ECF1F7;stroke-linecap:round;stroke-miterlimit:10;}
	.st32{opacity:0.37;fill:#EF929C;}
	.st33{fill:none;stroke:#EF929C;stroke-width:0.5;stroke-linecap:round;stroke-miterlimit:10;}
</style>
<g id="BACKGROUND">
</g>
<g id="OBJECTS">
	<g>
		<g>
			<g>
				<g>
					<path class="st0" d="M180.3,123h-14c-2.9,0-5.2-2.3-5.2-5.2V107c-3.7-1-7.3-2.5-10.6-4.4l-7.6,7.6c-2,2-5.3,2-7.4,0l-9.9-9.9
						c-2-2-2-5.3,0-7.4l7.6-7.6c-1.9-3.4-3.4-6.9-4.4-10.6h-10.8c-2.9,0-5.2-2.3-5.2-5.2v-14c0-2.9,2.3-5.2,5.2-5.2h10.8
						c1-3.7,2.5-7.3,4.4-10.6l-7.6-7.6c-2-2-2-5.3,0-7.4l9.9-9.9c2-2,5.3-2,7.4,0l7.6,7.6c3.4-1.9,6.9-3.4,10.6-4.4V7.2
						c0-2.9,2.3-5.2,5.2-5.2h14c2.9,0,5.2,2.3,5.2,5.2V18c3.7,1,7.3,2.5,10.6,4.4l7.6-7.6c2-2,5.3-2,7.4,0l9.9,9.9c2,2,2,5.3,0,7.4
						l-7.6,7.6c1.9,3.4,3.4,6.9,4.4,10.6h10.8c2.9,0,5.2,2.3,5.2,5.2v14c0,2.9-2.3,5.2-5.2,5.2h-10.8c-1,3.7-2.5,7.3-4.4,10.6
						l7.6,7.6c2,2,2,5.3,0,7.4l-9.9,9.9c-2,2-5.3,2-7.4,0l-7.6-7.6c-3.4,1.9-6.9,3.4-10.6,4.4v10.8C185.6,120.6,183.2,123,180.3,123
						z M150.2,99.6l0.8,0.5c3.7,2.2,7.6,3.8,11.7,4.9l0.9,0.2v12.6c0,1.6,1.3,2.8,2.8,2.8h14c1.6,0,2.8-1.3,2.8-2.8v-12.6l0.9-0.2
						c4.1-1,8-2.7,11.7-4.9l0.8-0.5l8.9,8.9c1.1,1.1,2.9,1.1,4,0l9.9-9.9c1.1-1.1,1.1-2.9,0-4l-8.9-8.9l0.5-0.8
						c2.2-3.7,3.8-7.6,4.9-11.7l0.2-0.9h12.6c1.6,0,2.8-1.3,2.8-2.8v-14c0-1.6-1.3-2.8-2.8-2.8H216l-0.2-0.9c-1-4.1-2.7-8-4.9-11.7
						l-0.5-0.8l8.9-8.9c1.1-1.1,1.1-2.9,0-4l-9.9-9.9c-1.1-1.1-2.9-1.1-4,0l-8.9,8.9l-0.8-0.5c-3.7-2.2-7.6-3.8-11.7-4.9l-0.9-0.2
						V7.2c0-1.6-1.3-2.8-2.8-2.8h-14c-1.6,0-2.8,1.3-2.8,2.8v12.6l-0.9,0.2c-4.1,1-8,2.7-11.7,4.9l-0.8,0.5l-8.9-8.9
						c-1.1-1.1-2.9-1.1-4,0l-9.9,9.9c-1.1,1.1-1.1,2.9,0,4l8.9,8.9l-0.5,0.8c-2.2,3.7-3.8,7.6-4.9,11.7l-0.2,0.9h-12.6
						c-1.6,0-2.8,1.3-2.8,2.8v14c0,1.6,1.3,2.8,2.8,2.8h12.6l0.2,0.9c1,4.1,2.7,8,4.9,11.7l0.5,0.8l-8.9,8.9c-1.1,1.1-1.1,2.9,0,4
						l9.9,9.9c1.1,1.1,2.9,1.1,4,0L150.2,99.6z M173.4,95.5c-18.2,0-33-14.8-33-33s14.8-33,33-33c18.2,0,33,14.8,33,33
						S191.6,95.5,173.4,95.5z M173.4,31.9c-16.9,0-30.6,13.7-30.6,30.6s13.7,30.6,30.6,30.6S204,79.4,204,62.5
						S190.2,31.9,173.4,31.9z"/>
				</g>
			</g>
			<g>
				<path class="st0" d="M160.8,156.9l-5.8-3.2c0.6-2.4,0.9-4.9,0.8-7.4l6.4-1.9c1.2-0.4,1.9-1.6,1.5-2.8l-2.3-7.6
					c-0.4-1.2-1.6-1.9-2.8-1.5l-6.4,1.9c-1.2-2.1-2.8-4-4.7-5.7l3.2-5.8c0.6-1.1,0.2-2.5-0.9-3.1l-7-3.8c-1.1-0.6-2.5-0.2-3.1,0.9
					l-3.2,5.8c-2.4-0.6-4.9-0.9-7.4-0.8l-1.9-6.4c-0.4-1.2-1.6-1.9-2.8-1.5l-7.6,2.3c-1.2,0.4-1.9,1.6-1.5,2.8l1.9,6.4
					c-2.1,1.2-4,2.8-5.7,4.7l-5.8-3.2c-1.1-0.6-2.5-0.2-3.1,0.9l-3.8,7c-0.6,1.1-0.2,2.5,0.9,3.1l5.8,3.2c-0.6,2.4-0.9,4.9-0.8,7.4
					l-6.4,1.9c-1.2,0.4-1.9,1.6-1.5,2.8l2.3,7.6c0.4,1.2,1.6,1.9,2.8,1.5l6.4-1.9c1.2,2.1,2.8,4,4.7,5.7l-3.2,5.8
					c-0.6,1.1-0.2,2.5,0.9,3.1l7,3.8c1.1,0.6,2.5,0.2,3.1-0.9l3.2-5.8c2.4,0.6,4.9,0.9,7.4,0.8l1.9,6.4c0.4,1.2,1.6,1.9,2.8,1.5
					l7.6-2.3c1.2-0.4,1.9-1.6,1.5-2.8l-1.9-6.4c2.1-1.2,4-2.8,5.7-4.7l5.8,3.2c1.1,0.6,2.5,0.2,3.1-0.9l3.8-7
					C162.3,158.9,161.9,157.5,160.8,156.9z M121.6,163.3c-8.8-4.7-12-15.7-7.3-24.5c4.7-8.8,15.7-12,24.5-7.3
					c8.8,4.7,12,15.7,7.3,24.5C141.3,164.8,130.3,168.1,121.6,163.3z"/>
			</g>
			<g class="st1">
				<path class="st2" d="M116.1,103.6l-4.5-2.4c0.5-1.9,0.7-3.8,0.6-5.7L117,94c0.9-0.3,1.5-1.3,1.2-2.2l-1.7-5.8
					c-0.3-0.9-1.3-1.5-2.2-1.2l-4.9,1.5c-1-1.6-2.2-3.1-3.6-4.4l2.4-4.5c0.5-0.9,0.1-1.9-0.7-2.4l-5.4-2.9c-0.9-0.5-1.9-0.1-2.4,0.7
					l-2.4,4.5c-1.9-0.5-3.8-0.7-5.7-0.6l-1.5-4.9c-0.3-0.9-1.3-1.5-2.2-1.2l-5.8,1.7c-0.9,0.3-1.5,1.3-1.2,2.2l1.5,4.9
					c-1.6,1-3.1,2.2-4.4,3.6l-4.5-2.4c-0.9-0.5-1.9-0.1-2.4,0.7l-2.9,5.4c-0.5,0.9-0.1,1.9,0.7,2.4l4.5,2.4
					c-0.5,1.9-0.7,3.8-0.6,5.7L68,98.6c-0.9,0.3-1.5,1.3-1.2,2.2l1.7,5.8c0.3,0.9,1.3,1.5,2.2,1.2l4.9-1.5c1,1.6,2.2,3.1,3.6,4.4
					l-2.4,4.5c-0.5,0.9-0.1,1.9,0.7,2.4l5.4,2.9c0.9,0.5,1.9,0.1,2.4-0.7l2.4-4.5c1.9,0.5,3.8,0.7,5.7,0.6l1.5,4.9
					c0.3,0.9,1.3,1.5,2.2,1.2l5.8-1.7c0.9-0.3,1.5-1.3,1.2-2.2l-1.5-4.9c1.6-1,3.1-2.2,4.4-3.6l4.5,2.4c0.9,0.5,1.9,0.1,2.4-0.7
					l2.9-5.4C117.2,105.1,116.9,104,116.1,103.6z M85.9,108.5c-6.7-3.7-9.3-12.1-5.6-18.8c3.7-6.7,12.1-9.3,18.8-5.6
					c6.7,3.7,9.3,12.1,5.6,18.8C101.1,109.7,92.6,112.2,85.9,108.5z"/>
			</g>
			<g class="st3">
				<path class="st4" d="M287,40.5l-5.5-3c0.6-2.3,0.8-4.7,0.7-7l6-1.8c1.1-0.3,1.8-1.6,1.5-2.7l-2.1-7.2c-0.3-1.1-1.6-1.8-2.7-1.5
					l-6,1.8c-1.2-2-2.7-3.8-4.4-5.4l3-5.5c0.6-1.1,0.2-2.4-0.9-2.9l-6.6-3.6c-1.1-0.6-2.4-0.2-2.9,0.9l-3,5.5
					c-2.3-0.6-4.7-0.8-7-0.7l-1.8-6c-0.3-1.1-1.6-1.8-2.7-1.5l-7.2,2.1c-1.1,0.3-1.8,1.6-1.5,2.7l1.8,6c-2,1.2-3.8,2.7-5.4,4.4
					l-5.5-3c-1.1-0.6-2.4-0.2-2.9,0.9l-3.6,6.6c-0.6,1.1-0.2,2.4,0.9,2.9l5.5,3c-0.6,2.3-0.8,4.7-0.7,7l-6,1.8
					c-1.1,0.3-1.8,1.6-1.5,2.7l2.1,7.2c0.3,1.1,1.6,1.8,2.7,1.5l6-1.8c1.2,2,2.7,3.8,4.4,5.4l-3,5.5c-0.6,1.1-0.2,2.4,0.9,2.9
					l6.6,3.6c1.1,0.6,2.4,0.2,2.9-0.9l3-5.5c2.3,0.6,4.7,0.8,7,0.7l1.8,6c0.3,1.1,1.6,1.8,2.7,1.5l7.2-2.1c1.1-0.3,1.8-1.6,1.5-2.7
					l-1.8-6c2-1.2,3.8-2.7,5.4-4.4l5.5,3c1.1,0.6,2.4,0.2,2.9-0.9l3.6-6.6C288.4,42.4,288,41,287,40.5z M249.8,46.6
					c-8.3-4.5-11.4-14.9-6.9-23.2c4.5-8.3,14.9-11.4,23.2-6.9c8.3,4.5,11.4,14.9,6.9,23.2C268.5,48,258.1,51.1,249.8,46.6z"/>
			</g>
		</g>
		<g>
			<g>
				<g>
					<path class="st0" d="M195.6,302.5H40.9c-4.6,0-8.4-3.8-8.4-8.4V185.7c0-4.6,3.8-8.4,8.4-8.4h154.7c4.6,0,8.4,3.8,8.4,8.4v108.4
						C204,298.7,200.2,302.5,195.6,302.5z"/>
					<path class="st5" d="M32.5,211.9v-28.2c0-3.5,2.8-6.4,6.4-6.4h158.8c3.5,0,6.4,2.8,6.4,6.4v27.6L32.5,211.9z"/>
					<g>
						<rect x="45.8" y="218.6" class="st5" width="19" height="15.2"/>
						<rect x="45.8" y="245.2" class="st6" width="19" height="15.2"/>
						<rect x="45.8" y="271" class="st6" width="19" height="15.2"/>
					</g>
					<g>
						<rect x="78.4" y="218.6" class="st6" width="19" height="15.2"/>
						<rect x="78.4" y="245.2" class="st5" width="19" height="15.2"/>
						<rect x="78.4" y="271" class="st6" width="19" height="15.2"/>
					</g>
					<g class="st7">
						<rect x="110.3" y="218.6" class="st8" width="19" height="15.2"/>
						<rect x="110.3" y="245.2" class="st8" width="19" height="15.2"/>
						<rect x="110.3" y="271" class="st5" width="19" height="15.2"/>
					</g>
					<g class="st9">
						<rect x="142.9" y="218.6" class="st5" width="19" height="15.2"/>
						<rect x="142.9" y="245.2" class="st5" width="19" height="15.2"/>
						<rect x="142.9" y="271" class="st5" width="19" height="15.2"/>
					</g>
					<g>
						<rect x="174" y="218.6" class="st10" width="19" height="15.2"/>
						<rect x="174" y="245.2" class="st5" width="19" height="15.2"/>
						<rect x="174" y="271" class="st10" width="19" height="15.2"/>
					</g>
					<circle class="st11" cx="89" cy="226" r="6"/>
					<line class="st11" x1="86.2" y1="221.5" x2="91.3" y2="230"/>
					<line class="st11" x1="93" y1="223.2" x2="84.5" y2="228.3"/>
				</g>
				<g>
					<g>
						<circle class="st12" cx="53.5" cy="190.2" r="7.6"/>
						<path class="st13" d="M53.5,192.9L53.5,192.9c-1.8,0-3.3-1.5-3.3-3.3v-21.9c0-1.8,1.5-3.3,3.3-3.3l0,0c1.8,0,3.3,1.5,3.3,3.3
							v21.9C56.8,191.4,55.3,192.9,53.5,192.9z"/>
					</g>
					<g>
						<circle class="st12" cx="76" cy="190.2" r="7.6"/>
						<path class="st13" d="M76,192.9L76,192.9c-1.8,0-3.3-1.5-3.3-3.3v-21.9c0-1.8,1.5-3.3,3.3-3.3l0,0c1.8,0,3.3,1.5,3.3,3.3v21.9
							C79.3,191.4,77.8,192.9,76,192.9z"/>
					</g>
					<g>
						<circle class="st12" cx="97.2" cy="190.2" r="7.6"/>
						<path class="st13" d="M97.2,192.9L97.2,192.9c-1.8,0-3.3-1.5-3.3-3.3v-21.9c0-1.8,1.5-3.3,3.3-3.3l0,0c1.8,0,3.3,1.5,3.3,3.3
							v21.9C100.5,191.4,99,192.9,97.2,192.9z"/>
					</g>
					<g>
						<circle class="st12" cx="119.6" cy="190.2" r="7.6"/>
						<path class="st13" d="M119.6,192.9L119.6,192.9c-1.8,0-3.3-1.5-3.3-3.3v-21.9c0-1.8,1.5-3.3,3.3-3.3l0,0
							c1.8,0,3.3,1.5,3.3,3.3v21.9C123,191.4,121.5,192.9,119.6,192.9z"/>
					</g>
					<g>
						<circle class="st12" cx="140.8" cy="190.2" r="7.6"/>
						<path class="st13" d="M140.8,192.9L140.8,192.9c-1.8,0-3.3-1.5-3.3-3.3v-21.9c0-1.8,1.5-3.3,3.3-3.3l0,0
							c1.8,0,3.3,1.5,3.3,3.3v21.9C144.1,191.4,142.6,192.9,140.8,192.9z"/>
					</g>
					<g>
						<circle class="st12" cx="163.2" cy="190.2" r="7.6"/>
						<path class="st13" d="M163.2,192.9L163.2,192.9c-1.8,0-3.3-1.5-3.3-3.3v-21.9c0-1.8,1.5-3.3,3.3-3.3l0,0
							c1.8,0,3.3,1.5,3.3,3.3v21.9C166.6,191.4,165.1,192.9,163.2,192.9z"/>
					</g>
					<g>
						<circle class="st12" cx="184.4" cy="190.2" r="7.6"/>
						<path class="st13" d="M184.4,192.9L184.4,192.9c-1.8,0-3.3-1.5-3.3-3.3v-21.9c0-1.8,1.5-3.3,3.3-3.3l0,0
							c1.8,0,3.3,1.5,3.3,3.3v21.9C187.8,191.4,186.3,192.9,184.4,192.9z"/>
					</g>
				</g>
			</g>
			<g>
				<ellipse class="st2" cx="136.2" cy="302.1" rx="44.6" ry="45.1"/>
				<ellipse class="st0" cx="136.2" cy="302.1" rx="34.3" ry="34.7"/>
				<path class="st2" d="M136.9,299.7h-1.5c-0.5,0-0.9-0.4-0.9-0.9V277c0-0.5,0.4-0.9,0.9-0.9h1.5c0.5,0,0.9,0.4,0.9,0.9v21.8
					C137.8,299.2,137.4,299.7,136.9,299.7z"/>
				<path class="st2" d="M136.3,303.5V302c0-0.5,0.4-0.9,0.9-0.9h17.1c0.5,0,0.9,0.4,0.9,0.9v1.5c0,0.5-0.4,0.9-0.9,0.9h-17.1
					C136.7,304.4,136.3,304,136.3,303.5z"/>
				<path class="st13" d="M141.2,302.1c0,2.8-2.2,5-5,5c-2.8,0-5-2.3-5-5c0-2.8,2.2-5,5-5C138.9,297.1,141.2,299.4,141.2,302.1z"/>
			</g>
			<g>
				<path class="st0" d="M40.9,130.1H1.6c-0.9,0-1.6,0.7-1.6,1.6v4.2v2.1v20.3v1.8v0.3c0,0.9,0.7,1.6,1.6,1.6h39.2
					c0.9,0,1.6-0.7,1.6-1.6V160v-1.6v-22v-2.1v-2.7C42.5,130.8,41.8,130.1,40.9,130.1z"/>
				<g>
					<path class="st14" d="M16.5,144.4l4.3,2.3c0.3,0.1,0.6,0.1,0.8,0l19.1-11.2l1.4-0.8c0.1-0.1,0.2-0.1,0.3-0.1v-2.7
						c0-0.9-0.7-1.6-1.6-1.6H1.6c-0.9,0-1.6,0.7-1.6,1.6v4.2l1,0.5L16.5,144.4z"/>
					<polygon class="st14" points="0,138 0,158.3 15.2,145.8 					"/>
					<polygon class="st14" points="42.5,158.4 42.5,136.5 27.1,145.5 					"/>
					<path class="st14" d="M41.5,159.9l-16-13.4l-2.9,1.7c-0.4,0.2-0.9,0.4-1.3,0.4c-0.4,0-0.9-0.1-1.2-0.3l-3-1.6
						c0,0.1-0.1,0.1-0.1,0.2L0.9,159.9c-0.2,0.1-0.4,0.2-0.6,0.2c-0.1,0-0.2,0-0.3-0.1v0.3c0,0.9,0.7,1.6,1.6,1.6h39.2
						c0.9,0,1.6-0.7,1.6-1.6V160c-0.1,0.1-0.3,0.1-0.5,0.1C41.8,160.2,41.6,160.1,41.5,159.9z"/>
					<path class="st15" d="M42.5,134.4c-0.1,0-0.2,0.1-0.3,0.1l-1.4,0.8l-19.1,11.2c-0.3,0.1-0.6,0.1-0.8,0l-4.3-2.3L1,136.5L0,136
						v2.1l15.2,7.7L0,158.3v1.8c0.1,0,0.2,0.1,0.3,0.1c0.2,0,0.4-0.1,0.6-0.2l15.9-13.1c0.1,0,0.1-0.1,0.1-0.2l3,1.6
						c0.4,0.2,0.8,0.3,1.2,0.3c0.5,0,0.9-0.1,1.3-0.4l2.9-1.7l16,13.4c0.2,0.1,0.4,0.2,0.6,0.2c0.2,0,0.3-0.1,0.5-0.1v-1.6
						l-15.4-12.9l15.4-9.1V134.4z"/>
				</g>
			</g>
		</g>
	</g>
	<g>
		<circle class="st13" cx="282" cy="202" r="156"/>
		<circle class="st16" cx="282" cy="202" r="141.8"/>
		<circle class="st0" cx="282" cy="202" r="127.3"/>
		<g>
			<g>
				<path class="st17" d="M281.9,103.4h-0.3c-1.8,0-3.3-1.5-3.3-3.3V83.6c0-1.8,1.5-3.3,3.3-3.3h0.3c1.8,0,3.3,1.5,3.3,3.3v16.6
					C285.2,102,283.7,103.4,281.9,103.4z"/>
				<path class="st17" d="M282.3,323.7h-0.3c-1.8,0-3.3-1.5-3.3-3.3v-16.6c0-1.8,1.5-3.3,3.3-3.3h0.3c1.8,0,3.3,1.5,3.3,3.3v16.6
					C285.7,322.3,284.2,323.7,282.3,323.7z"/>
			</g>
			<g>
				<path class="st17" d="M380.6,201.9v-0.3c0-1.8,1.5-3.3,3.3-3.3h16.6c1.8,0,3.3,1.5,3.3,3.3v0.3c0,1.8-1.5,3.3-3.3,3.3h-16.6
					C382,205.2,380.6,203.7,380.6,201.9z"/>
				<path class="st17" d="M160.3,202.3v-0.3c0-1.8,1.5-3.3,3.3-3.3h16.6c1.8,0,3.3,1.5,3.3,3.3v0.3c0,1.8-1.5,3.3-3.3,3.3h-16.6
					C161.7,205.7,160.3,204.2,160.3,202.3z"/>
			</g>
			<g>
				<path class="st17" d="M354.7,129.2l-0.2-0.2c-1.3-1.3-1.3-3.4,0-4.7l6.1-6.1c1.3-1.3,3.4-1.3,4.7,0l0.2,0.2
					c1.3,1.3,1.3,3.4,0,4.7l-6.1,6.1C358.1,130.4,356,130.4,354.7,129.2z"/>
				<path class="st17" d="M198.6,285.9l-0.2-0.2c-1.3-1.3-1.3-3.4,0-4.7l7.4-7.4c1.3-1.3,3.4-1.3,4.7,0l0.2,0.2
					c1.3,1.3,1.3,3.4,0,4.7l-7.4,7.4C202,287.2,199.9,287.2,198.6,285.9z"/>
			</g>
			<g>
				<path class="st17" d="M354.8,274.8l0.2-0.2c1.3-1.3,3.4-1.3,4.7,0l6.1,6.1c1.3,1.3,1.3,3.4,0,4.7l-0.2,0.2
					c-1.3,1.3-3.4,1.3-4.7,0l-6.1-6.1C353.6,278.2,353.6,276.1,354.8,274.8z"/>
				<path class="st17" d="M198.1,118.7l0.2-0.2c1.3-1.3,3.4-1.3,4.7,0l7.4,7.4c1.3,1.3,1.3,3.4,0,4.7l-0.2,0.2
					c-1.3,1.3-3.4,1.3-4.7,0l-7.4-7.4C196.8,122.1,196.8,120,198.1,118.7z"/>
			</g>
		</g>
		<g>
			<path class="st13" d="M282.1,204h-0.3c-2,0-3.7-1.6-3.7-3.7v-79.9c0-2,1.6-3.7,3.7-3.7h0.3c2,0,3.7,1.6,3.7,3.7v79.9
				C285.7,202.3,284.1,204,282.1,204z"/>
			<path class="st13" d="M278.2,207v-0.3c0-2,1.6-3.7,3.7-3.7h55.3c2,0,3.7,1.6,3.7,3.7v0.3c0,2-1.6,3.7-3.7,3.7h-55.3
				C279.8,210.6,278.2,209,278.2,207z"/>
		</g>
		<line class="st18" x1="339.3" y1="150.4" x2="282.4" y2="201.6"/>
		<circle class="st15" cx="282" cy="202" r="13.8"/>
	</g>
	<g>
		<g>
			<g>
				<path class="st19" d="M574.5,286.4v8.2c0,3.1-2.5,5.6-5.6,5.6h-19.7"/>
				<path class="st19" d="M521.8,234h8.2c3.1,0,5.6,2.5,5.6,5.6v19.7"/>
				<g>
					<path class="st0" d="M468.8,314h79.4c0.9,0,1.7-0.8,1.7-1.7v-51c0-0.9-0.8-1.7-1.7-1.7h-79.4c-0.9,0-1.7,0.8-1.7,1.7v51
						C467.1,313.2,467.9,314,468.8,314z"/>
					<path class="st20" d="M468.8,314h79.4c0.9,0,1.7-0.8,1.7-1.7v-51c0-0.9-0.8-1.7-1.7-1.7h-79.4c-0.9,0-1.7,0.8-1.7,1.7v51
						C467.1,313.2,467.9,314,468.8,314z"/>
				</g>
				<path class="st0" d="M479.8,284.9h57.4c0.7,0,1.2-0.6,1.2-1.2v-12.1c0-0.7-0.6-1.2-1.2-1.2h-57.4c-0.7,0-1.2,0.6-1.2,1.2v12.1
					C478.6,284.3,479.2,284.9,479.8,284.9z"/>
				<g>
					<path class="st0" d="M479.4,291.9h58.2c0.5,0,0.8-0.4,0.8-0.8l0,0c0-0.5-0.4-0.8-0.8-0.8h-58.2c-0.5,0-0.8,0.4-0.8,0.8l0,0
						C478.6,291.5,479,291.9,479.4,291.9z"/>
					<path class="st0" d="M479.4,296.5h58.2c0.5,0,0.8-0.4,0.8-0.8l0,0c0-0.5-0.4-0.8-0.8-0.8h-58.2c-0.5,0-0.8,0.4-0.8,0.8l0,0
						C478.6,296.1,479,296.5,479.4,296.5z"/>
					<path class="st0" d="M479.4,301.6h58.2c0.5,0,0.8-0.4,0.8-0.8l0,0c0-0.5-0.4-0.8-0.8-0.8h-58.2c-0.5,0-0.8,0.4-0.8,0.8l0,0
						C478.6,301.2,479,301.6,479.4,301.6z"/>
					<path class="st0" d="M479.4,306.2h58.2c0.5,0,0.8-0.4,0.8-0.8l0,0c0-0.5-0.4-0.8-0.8-0.8h-58.2c-0.5,0-0.8,0.4-0.8,0.8l0,0
						C478.6,305.9,479,306.2,479.4,306.2z"/>
				</g>
				<path class="st0" d="M565.5,287.2h18.8c0.9,0,1.7-0.8,1.7-1.7v-11.9c0-0.9-0.8-1.7-1.7-1.7h-18.8c-0.9,0-1.7,0.8-1.7,1.7v11.9
					C563.8,286.4,564.5,287.2,565.5,287.2z"/>
				<path class="st21" d="M565.5,287.2h18.8c0.9,0,1.7-0.8,1.7-1.7v-11.9c0-0.9-0.8-1.7-1.7-1.7h-18.8c-0.9,0-1.7,0.8-1.7,1.7v11.9
					C563.8,286.4,564.5,287.2,565.5,287.2z"/>
			</g>
			<g class="st22">
				<g class="st23">
					<g>
						<path class="st15" d="M519.5,244.1H416.7c-0.9,0-1.7-0.8-1.7-1.7v-64.9c0-0.9,0.8-1.7,1.7-1.7h102.8c0.9,0,1.7,0.8,1.7,1.7
							v64.9C521.2,243.4,520.4,244.1,519.5,244.1z"/>
					</g>
				</g>
				<g>
					<path class="st0" d="M504.4,193H429c-0.3,0-0.5-0.2-0.5-0.5c0-0.3,0.2-0.5,0.5-0.5h75.5c0.3,0,0.5,0.2,0.5,0.5
						C504.9,192.8,504.7,193,504.4,193z"/>
					<path class="st0" d="M459.8,213.3H429c-0.3,0-0.5-0.2-0.5-0.5c0-0.3,0.2-0.5,0.5-0.5h30.9c0.3,0,0.5,0.2,0.5,0.5
						C460.3,213.1,460.1,213.3,459.8,213.3z"/>
					<path class="st0" d="M459.8,225.4H429c-0.3,0-0.5-0.2-0.5-0.5c0-0.3,0.2-0.5,0.5-0.5h30.9c0.3,0,0.5,0.2,0.5,0.5
						C460.3,225.2,460.1,225.4,459.8,225.4z"/>
					<g>
						<path class="st0" d="M468.4,201.1H429c-0.3,0-0.5-0.2-0.5-0.5c0-0.3,0.2-0.5,0.5-0.5h39.4c0.3,0,0.5,0.2,0.5,0.5
							C468.9,200.9,468.7,201.1,468.4,201.1z"/>
						<path class="st0" d="M503.6,201.3h-27.5c-0.4,0-0.8-0.3-0.8-0.6c0-0.3,0.4-0.6,0.8-0.6h27.5c0.4,0,0.8,0.3,0.8,0.6
							C504.4,201,504.1,201.3,503.6,201.3z"/>
					</g>
				</g>
				<path class="st0" d="M503.1,230.4h-34.3c-1.1,0-2-0.9-2-2v-19.5c0-1.1,0.9-2,2-2h34.3c1.1,0,2,0.9,2,2v19.5
					C505.1,229.5,504.2,230.4,503.1,230.4z"/>
				<g>
					<path class="st24" d="M470.9,223.7l2.1-6.3c0.2-0.5,0.8-0.6,1.2-0.3l5.8,6.3c0.4,0.4,1,0.3,1.2-0.2l3.5-9.5
						c0.2-0.5,0.9-0.6,1.2-0.2l7.9,10c0.3,0.4,0.9,0.3,1.1-0.1l6.9-10.9"/>
					<polyline class="st24" points="499.6,212.9 502,212.2 502,214.7 					"/>
				</g>
			</g>
		</g>
		<g>
			<g>
				<g class="st25">
					<g>
						<path class="st26" d="M510,144.7l-3.6-1.9c0.4-1.4,0.5-2.9,0.4-4.4l3.9-1.1c0.7-0.2,1.1-1,0.9-1.7l-1.5-4.5
							c-0.2-0.7-1-1.1-1.8-0.9l-3.9,1.1c-0.8-1.3-1.8-2.4-2.9-3.5l1.9-3.4c0.4-0.7,0.1-1.5-0.6-1.9l-4.3-2.3
							c-0.7-0.4-1.5-0.1-1.9,0.5l-1.9,3.4c-1.5-0.4-3-0.6-4.5-0.5l-1.2-3.8c-0.2-0.7-1-1.1-1.8-0.9l-4.6,1.3c-0.7,0.2-1.1,1-0.9,1.7
							l1.2,3.8c-1.3,0.7-2.4,1.6-3.4,2.7l-3.6-1.9c-0.7-0.4-1.5-0.1-1.9,0.5l-2.2,4.1c-0.4,0.7-0.1,1.5,0.6,1.9l3.6,1.9
							c-0.4,1.4-0.5,2.9-0.4,4.4l-3.9,1.1c-0.7,0.2-1.1,1-0.9,1.7l1.5,4.5c0.2,0.7,1,1.1,1.8,0.9l3.9-1.1c0.8,1.3,1.8,2.4,2.9,3.5
							l-1.9,3.4c-0.4,0.7-0.1,1.5,0.6,1.9l4.3,2.3c0.7,0.4,1.5,0.1,1.9-0.5l1.9-3.4c1.5,0.4,3,0.6,4.5,0.5l1.2,3.8
							c0.2,0.7,1,1.1,1.8,0.9l4.6-1.3c0.7-0.2,1.1-1,0.9-1.7l-1.2-3.8c1.3-0.7,2.4-1.6,3.4-2.7l3.6,1.9c0.7,0.4,1.5,0.1,1.9-0.5
							l2.2-4.1C510.9,145.9,510.6,145,510,144.7z M486.2,148c-5.4-2.9-7.5-9.5-4.7-14.6c2.8-5.2,9.4-7,14.8-4.1
							c5.4,2.9,7.5,9.5,4.7,14.6C498.2,149.2,491.5,151,486.2,148z"/>
					</g>
				</g>
				<g class="st27">
					<path class="st0" d="M542.8,91.9l-5.8-3.2c0.6-2.4,0.9-4.9,0.8-7.4l6.4-1.9c1.2-0.4,1.9-1.6,1.5-2.8l-2.3-7.6
						c-0.4-1.2-1.6-1.9-2.8-1.5l-6.4,1.9c-1.2-2.1-2.8-4-4.7-5.7l3.2-5.8c0.6-1.1,0.2-2.5-0.9-3.1l-7-3.8c-1.1-0.6-2.5-0.2-3.1,0.9
						l-3.2,5.8c-2.4-0.6-4.9-0.9-7.4-0.8l-1.9-6.4c-0.4-1.2-1.6-1.9-2.8-1.5l-7.6,2.3c-1.2,0.4-1.9,1.6-1.5,2.8l1.9,6.4
						c-2.1,1.2-4,2.8-5.7,4.7l-5.8-3.2c-1.1-0.6-2.5-0.2-3.1,0.9l-3.8,7c-0.6,1.1-0.2,2.5,0.9,3.1l5.8,3.2c-0.6,2.4-0.9,4.9-0.8,7.4
						l-6.4,1.9c-1.2,0.4-1.9,1.6-1.5,2.8l2.3,7.6c0.4,1.2,1.6,1.9,2.8,1.5l6.4-1.9c1.2,2.1,2.8,4,4.7,5.7l-3.2,5.8
						c-0.6,1.1-0.2,2.5,0.9,3.1l7,3.8c1.1,0.6,2.5,0.2,3.1-0.9l3.2-5.8c2.4,0.6,4.9,0.9,7.4,0.8l1.9,6.4c0.4,1.2,1.6,1.9,2.8,1.5
						l7.6-2.3c1.2-0.4,1.9-1.6,1.5-2.8l-1.9-6.4c2.1-1.2,4-2.8,5.7-4.7l5.8,3.2c1.1,0.6,2.5,0.2,3.1-0.9l3.8-7
						C544.3,93.9,543.9,92.5,542.8,91.9z M503.6,98.3c-8.8-4.7-12-15.7-7.3-24.5c4.7-8.8,15.7-12,24.5-7.3c8.8,4.7,12,15.7,7.3,24.5
						C523.3,99.8,512.3,103.1,503.6,98.3z"/>
				</g>
				<rect x="429" y="19.7" class="st13" width="26.3" height="15.2"/>
				<path class="st15" d="M457.5,24.4h-30.8c-1.1,0-2-0.9-2-2V16c0-1.1,0.9-2,2-2h30.8c1.1,0,2,0.9,2,2v6.5
					C459.5,23.6,458.6,24.4,457.5,24.4z"/>
				<ellipse class="st5" cx="442.1" cy="95.4" rx="62.9" ry="63.6"/>
				<ellipse class="st0" cx="442.1" cy="95.4" rx="48.3" ry="48.9"/>
				<path class="st28" d="M485.3,116.8c-7.8,16.3-24.4,27.5-43.5,27.5c-18.6,0-34.8-10.6-42.8-26.2c-1.8-3.4,19.6-22.4,41.9-22.7
					C463.3,95.1,486.8,113.5,485.3,116.8z"/>
				<path class="st16" d="M469.1,127.1c-4.9,10.2-15.2,17.2-27.1,17.2c-11.6,0-21.7-6.6-26.7-16.4c-1.1-2.1,12.2-14,26.2-14.2
					C455.4,113.5,470,125.1,469.1,127.1z"/>
				<path class="st5" d="M443.6,91.9h-2.9c-0.5,0-0.9-0.4-0.9-0.9V59.5c0-0.5,0.4-0.9,0.9-0.9h2.9c0.5,0,0.9,0.4,0.9,0.9V91
					C444.5,91.4,444.1,91.9,443.6,91.9z"/>
				<ellipse class="st13" cx="442.1" cy="95.4" rx="7" ry="7.1"/>
			</g>
			<g>
				<path class="st0" d="M544.9,135h-25.8c-0.6,0-1.1,0.5-1.1,1.1v2.8v1.4v13.4v1.2v0.2c0,0.6,0.5,1.1,1.1,1.1h25.8
					c0.6,0,1.1-0.5,1.1-1.1v-0.2v-1v-14.5v-1.4v-1.8C546,135.5,545.5,135,544.9,135z"/>
				<g>
					<path class="st14" d="M528.9,144.4l2.8,1.5c0.2,0.1,0.4,0.1,0.5,0l12.6-7.4l0.9-0.6c0.1,0,0.1-0.1,0.2-0.1v-1.8
						c0-0.6-0.5-1.1-1.1-1.1h-25.8c-0.6,0-1.1,0.5-1.1,1.1v2.8l0.7,0.3L528.9,144.4z"/>
					<polygon class="st14" points="518,140.2 518,153.6 528,145.3 					"/>
					<polygon class="st14" points="546,153.7 546,139.2 535.9,145.1 					"/>
					<path class="st14" d="M545.3,154.6l-10.5-8.8l-1.9,1.1c-0.3,0.2-0.6,0.2-0.9,0.2c-0.3,0-0.6-0.1-0.8-0.2l-2-1
						c0,0-0.1,0.1-0.1,0.1l-10.5,8.6c-0.1,0.1-0.2,0.1-0.4,0.1c-0.1,0-0.2,0-0.2,0v0.2c0,0.6,0.5,1.1,1.1,1.1h25.8
						c0.6,0,1.1-0.5,1.1-1.1v-0.2c-0.1,0.1-0.2,0.1-0.3,0.1C545.5,154.8,545.4,154.7,545.3,154.6z"/>
					<path class="st15" d="M546,137.8c-0.1,0-0.1,0-0.2,0.1l-0.9,0.6l-12.6,7.4c-0.2,0.1-0.4,0.1-0.5,0l-2.8-1.5l-10.2-5.2l-0.7-0.3
						v1.4l10,5.1l-10,8.3v1.2c0.1,0,0.1,0,0.2,0c0.1,0,0.3,0,0.4-0.1l10.5-8.6c0,0,0.1-0.1,0.1-0.1l2,1c0.3,0.1,0.5,0.2,0.8,0.2
						c0.3,0,0.6-0.1,0.9-0.2l1.9-1.1l10.5,8.8c0.1,0.1,0.3,0.1,0.4,0.1c0.1,0,0.2,0,0.3-0.1v-1l-10.1-8.5l10.1-6V137.8z"/>
				</g>
			</g>
		</g>
	</g>
	<g>
		<g>
			<g>
				<g>
					<g>
						<path class="st17" d="M414.8,348.1l0.2,0l0,1.6l-17.6,0.3l0-1.2c0-0.2,0.1-0.3,0.3-0.4c0,0,0.1,0,0.1,0L414.8,348.1z"/>
						<path class="st17" d="M408.7,342.2l5.3-0.1c0.1,0,0.3,0,0.4,0.1c0,0,0.1,0.1,0.1,0.1c0.1,0.1,0.2,0.3,0.2,0.4l0,0.6l0.1,2
							l0.1,2.7l-17,0.2c0,0-0.1,0-0.1,0c0.4-1.2,1.4-2.2,2.6-2.5l3.9-0.3c0.9-0.5,1.7-0.9,2.6-1.4l1.6-1.9c0,0,0.1,0,0.1,0
							c0,0,0,0,0.1,0C408.6,342.2,408.6,342.2,408.7,342.2z"/>
					</g>
					<g>
						<path class="st17" d="M441.3,348.2l0.2,0l0,1.6l-17.6,0.1l0-1.2c0-0.2,0.1-0.3,0.3-0.4c0,0,0.1,0,0.1,0L441.3,348.2z"/>
						<path class="st17" d="M435.2,342.2l5.3,0c0.1,0,0.3,0,0.4,0.1c0,0,0.1,0.1,0.1,0.1c0.1,0.1,0.1,0.3,0.2,0.4l0,0.6l0.1,2
							l0.1,2.7l-17,0.1c0,0-0.1,0-0.1,0c0.4-1.2,1.4-2.2,2.6-2.5l3.9-0.3c0.9-0.5,1.7-0.9,2.6-1.3l1.6-1.9c0,0,0.1,0,0.1,0
							c0,0,0.1,0,0.1,0C435.1,342.2,435.1,342.2,435.2,342.2z"/>
					</g>
				</g>
				<g>
					<g>
						<path class="st29" d="M348,143c0.2-0.6,0.8-0.9,1.3-0.7l1,0.3c0,0,0-0.1,0-0.1l-1.5-0.4c-0.7-0.2-1.2-0.9-0.9-1.5
							c0.5-1.3,1.6-0.8,2.2-0.6l0.8,0.3c0,0-1.4-0.5-1.4-0.6c-0.2-0.2-0.3-0.5-0.2-0.8c0.1-0.6,0.6-1,1.2-0.9l3.8,0.6
							c2.3,0.2,5.2,0.6,6.6,1l-1.4-3.1c-0.3-0.7,0-1.5,0.7-1.8c0.7-0.3,1.5,0,1.8,0.7l2.5,5.5c0.4,0.6,0.7,1.1,0.8,1.3
							c0.2,0.8,2.3,5,2.3,5l-5.1,1.7c0,0-7.7-2.4-10.9-3.6l-2.7-0.8C348.2,144.2,347.8,143.6,348,143z"/>
						<path class="st30" d="M360.9,139.6C360.9,139.6,360.9,139.6,360.9,139.6c-0.1-0.1-0.2-0.1-0.3,0c-0.7,0.6-1.1,1.3-1.1,2
							c0,1.2,1,2.1,1,2.2c0.1,0.1,0.2,0.1,0.3,0c0.1-0.1,0.1-0.2,0-0.3c0,0-0.9-0.8-0.9-1.9c0-0.6,0.3-1.2,0.9-1.7
							C360.9,139.8,361,139.6,360.9,139.6z"/>
					</g>
					<path class="st5" d="M425.3,169.2h-2h-5.4h-2c-3.7,0-7.6,1.7-11,4.1c-5.6-0.4-12.7-1-14-2c-2.1-1.6-19.2-22-23-26.5
						c-0.4-0.5-1.1-0.6-1.6-0.2l-4.7,3.6c-0.5,0.4-0.6,1.1-0.3,1.6c3.4,5.3,19.9,31,22.5,32.6c1.1,0.7,7,2.8,13.7,5.2l1.4,8.4
						c2.2,12.7,2.6,25.5,1.4,38.3l-0.7,7.1c0,0.5-0.5,1,0,1h41.2c0.6,0-2.6-14.7-2.6-15.3l5.9-40.8
						C445.3,175.7,434.9,169.2,425.3,169.2z"/>
				</g>
				<g>
					<path class="st29" d="M364.8,198.8c-0.1-0.4,0.2-0.8,0.6-0.8l4.7,0l-5.5-0.7c-0.3,0-0.6-0.3-0.6-0.6l0-0.1
						c0-0.3,0.3-0.6,0.6-0.6l5.4,0.2l-4.5-0.8c-0.4-0.1-0.6-0.4-0.5-0.7l0-0.1c0.1-0.3,0.3-0.5,0.7-0.5l4.3,0.5c0,0,0.1,0,0.1,0
						l3.3-0.1c0.5,0,0.8-0.6,0.4-1l-1.7-2.1c-0.2-0.3-0.2-0.6,0.1-0.8l0.1-0.1c0.2-0.2,0.6-0.2,0.8,0l3.5,2.4c1.9,1.2,2.8,2.2,3.2,3
						l-0.5,6.4c0,0,0,0-0.1,0c-2.2,0.1-8.1-0.5-8.6-0.5c0,0,0,0-0.1,0l-3.6,0c-0.4,0-0.7-0.3-0.7-0.7c0-0.3,0.2-0.5,0.5-0.5l3.2-0.5
						l-4.7-0.4c-0.3,0-0.5-0.2-0.6-0.5L364.8,198.8z"/>
					<g>
						<path class="st5" d="M439.1,176.5c-2.9-2.2-7.1-1.8-9.6,0.8c0,0,0,0,0,0c-2.3,2.4-12.1,14.3-14.6,14.9
							c-2.6,0.6-29.2,1.8-35,2.1c-0.6,0-1.1,0.5-1.1,1.2l-0.1,5.9c0,0.6,0.5,1.1,1.1,1.2c6.2,0.5,36.7,3.1,39.6,2
							c1.5-0.6,11.3-6.9,19.4-12.2c5.6-3.7,5.9-11.8,0.5-15.8C439.2,176.6,439.1,176.6,439.1,176.5z"/>
						<path class="st31" d="M379.8,202.7c6.2,0.5,36.7,3.1,39.6,2c0.7-0.3,3.1-1.7,6.3-3.8"/>
						<path class="st31" d="M439.1,176.5c-2.9-2.2-7.1-1.8-9.6,0.8c0,0,0,0,0,0c-2.3,2.4-12.1,14.3-14.6,14.9
							c-2.6,0.6-29.2,1.8-35,2.1"/>
					</g>
				</g>
				<path class="st17" d="M400,230.1c0-1.2,1-1.2,2.2-1.2l34.9-0.9c1.2,0,2.3,0.8,2.4,2c0,0,1.9,15.2,2,22.1l0.6,89.2
					c0,1.3-1.1,2.4-2.4,2.4l-7.4,0c-1.4,0-2.6-1.1-2.7-2.5l-7.3-78.4c-0.1-1.2-1.1-2.1-2.2-2.1h0c-1.2,0-2.2,1-2.2,2.2l-2.3,78.7
					c0,1.1-0.9,2-2,2l-7.4,0c-1.1,0-1.9-0.8-2-1.9l-4.7-95.9C399.2,243.2,400,230.1,400,230.1z"/>
			</g>
		</g>
		<g>
			<path class="st17" d="M435.7,149.2c0-0.2,0.1-0.3,0.2-0.4c0.7-1.5,1.6-3,1.4-4.7c-0.2-1.2-1-2.2-1.9-3c-1.1-0.9-1.6-1.7-1.9-3.2
				c-0.2-1.3-0.2-2.6-0.8-3.7c-0.4-0.8-1.2-1.4-1.9-1.9c-2-1.4-4.4-2.3-6.8-2.3c-1.3,0-2.3,0.5-3.5,0.7c-0.7,0.1-1.1-0.2-1.9-0.3
				c-0.7-0.1-1.3-0.2-2-0.3c-1.6,0-3.1,0.3-4.5,0.9c-3,1.3-7,4.2-7.8,7.6c-0.3,1.2-0.2,2.5-0.6,3.6c-0.9,2.3-3.6,2.7-5.2,4.3
				c-1,1-1.7,2.5-1.3,3.9c0.2,0.8,0.7,1.5,0.8,2.3c0.1,0.8-0.2,1.5-0.5,2.2c-0.9,1.7-2.3,3.4-2.2,5.3c0,0.8,0.4,1.6,0.7,2.3
				c4.7,8.9,16.9,9.9,25.7,8.7c5.3-0.7,11-2.3,15.2-5.7c1.7-1.4,3.2-3.2,3.6-5.3c0.6-3.8-2.4-7-4.4-9.9c-0.2-0.3-0.4-0.5-0.4-0.9
				C435.6,149.4,435.6,149.3,435.7,149.2z"/>
			<g>
				<g>
					<g>
						<path class="st29" d="M427.7,147.4l0.6,0c1.4,0.1,2.5,1.3,2.5,2.8l-0.2,2.6c-0.1,1.4-1.3,2.5-2.8,2.5l-1.1-0.1
							c-0.1,0-0.1,0-0.2,0l-1.3,17.4c-0.8,3.7-3.8,6.3-6.9,5.8c-3.4-0.5-5.6-4.2-4.9-8.3l0.1-3.6c-4.7-0.3-10-4.7-9.4-10.6l1.2-11.8
							c0.1-0.6,0.3-1.2,0.6-1.8c4.6,4,7.7-2.2,10.5-2.5c6.3-0.6,9.2,1.7,10.5,7.3C427,147.9,427.7,147.4,427.7,147.4z"/>
					</g>
					<polygon class="st32" points="421.9,166.8 413.5,166.9 413.4,169.9 					"/>
				</g>
				<path class="st17" d="M415.6,134.3c-0.8,0.9-1.2,2.3-1,3.5c0.4,3.3,4.2,3.7,6.4,5.5c1,0.8,1.7,2,1.6,3.2c-0.1,2.2-2.5,3.8-2.8,6
					c-0.3,1.8,1.4,2.8,1.7,4.4c0.3,1.3-0.5,2.5-1.2,3.6c-0.8,1.2-1.9,2-1.8,3.6c0.1,1.2,0.9,2.2,1.8,2.8c1,0.6,2.1,0.9,3.3,1
					c2.2,0.2,4.4,0,6.6-0.4c3.9-0.8,8.2-3.5,10-7.1c2.2-4.4-5.4-9.7-4.7-11.3c0.7-1.5,3.4-5.2-0.4-8.2c-3.4-2.7,0.5-3.7-3.9-8.4
					C429.4,130.6,422.8,126.2,415.6,134.3z"/>
				<g>
					<g>
						<g>
							<g>
								<g>
									<path class="st17" d="M408.9,148.9c-0.2,0.1-0.4,0-0.7,0c-0.2,0-0.5-0.1-0.7-0.1c-0.2,0-0.5,0-0.7,0c-0.2,0-0.5,0-0.7-0.1
										c-0.2-0.1-0.2-0.4,0-0.7c0.2-0.3,0.8-0.6,1.5-0.6c0.7,0.1,1.2,0.5,1.4,0.8C409.1,148.6,409.1,148.9,408.9,148.9z"/>
								</g>
								<g>
									<path class="st17" d="M417.2,149.5c-0.2,0.1-0.4,0-0.7,0c-0.2,0-0.5-0.1-0.7-0.1c-0.2,0-0.5,0-0.7,0c-0.2,0-0.5,0-0.7-0.1
										c-0.2-0.1-0.2-0.4,0-0.7c0.2-0.3,0.8-0.6,1.5-0.6c0.7,0.1,1.2,0.5,1.4,0.8C417.5,149.1,417.4,149.4,417.2,149.5z"/>
								</g>
								<path class="st17" d="M407,152.4L407,152.4c-0.3,0-0.5-0.3-0.5-0.6l0.1-1.1c0-0.3,0.3-0.5,0.6-0.5l0,0
									c0.3,0,0.5,0.3,0.5,0.6l-0.1,1.1C407.5,152.2,407.3,152.4,407,152.4z"/>
								<path class="st17" d="M415.1,153.2L415.1,153.2c-0.3,0-0.5-0.3-0.5-0.6l0.1-1.1c0-0.3,0.3-0.5,0.6-0.5l0,0
									c0.3,0,0.5,0.3,0.5,0.6l-0.1,1.1C415.7,153,415.4,153.2,415.1,153.2z"/>
							</g>
						</g>
						<path class="st33" d="M411.2,150.6l-1.6,2.4c-0.5,0.8,0.1,1.9,1,1.9l0.9,0.1"/>
						<g>
							<path class="st17" d="M414.6,159.8l-2.1-0.1c-0.5,0-0.9-0.5-0.8-1l0.1-2.1l5,0.3l-0.1,1C416.7,159,415.7,159.9,414.6,159.8z"
								/>
							<path class="st5" d="M414.6,159.8l-0.1,0c-0.5,0-0.9-0.6-0.8-1c0.1-1.1,3.1-0.9,3.1-0.9l0,0
								C416.7,159,415.7,159.9,414.6,159.8z"/>
						</g>
					</g>
				</g>
			</g>
		</g>
	</g>
</g>
<g id="DESIGNED_BY_FREEPIK">
</g>
</svg>
